<mxfile host="app.diagrams.net" modified="2024-03-03T14:01:21.068Z" agent="Mozilla/5.0 (Windows NT 10.0; Win64; x64) AppleWebKit/537.36 (KHTML, like Gecko) Chrome/122.0.0.0 Safari/537.36" version="23.1.6" etag="YNOVjn3fVwUKbzNEMw8O" type="github">
  <diagram name="Page-1" id="i_Ftmz4VqTEjdnsdQ-U9">
    <mxGraphModel>
      <root>
        <mxCell id="0" />
        <mxCell id="1" parent="0" />
      </root>
    </mxGraphModel>
  </diagram>
</mxfile>
